<?xml version="1.0" encoding="UTF-8" standalone="no"?><!DOCTYPE svg PUBLIC "-//W3C//DTD SVG 1.1//EN" "http://www.w3.org/Graphics/SVG/1.1/DTD/svg11.dtd"><svg width="100%" height="100%" viewBox="0 0 400 404" version="1.1" xmlns="http://www.w3.org/2000/svg" xmlns:xlink="http://www.w3.org/1999/xlink" xml:space="preserve" xmlns:serif="http://www.serif.com/" style="fill-rule:evenodd;clip-rule:evenodd;stroke-linejoin:round;stroke-miterlimit:2;"><g id="svg3842"><path d="M177.029,0.001c-2.525,6.313 -6.061,3.536 -6.061,3.536l-7.829,-0.758l-1.262,5.556l-2.526,-5.304c-2.272,9.85 -4.546,8.587 -4.546,8.587l-6.292,0.224c0.048,0.397 -0.12,1.273 -0.778,3.059c-1.768,4.798 -6.818,0 -6.818,0c0,0 -17.173,1.01 -25.76,0.505c-8.585,-0.505 -13.384,-7.324 -13.384,-7.324l-3.283,4.546l-8.081,-1.01l-0.505,-2.526l-4.293,2.526l-18.183,-0.505l-1.768,1.768l-2.778,-3.031l-4.546,-0.253l-2.02,2.273l-2.778,-3.788l-1.515,-0.252l-1.515,4.04l-2.525,-2.02l-10.86,-0.506l-2.342,-4.367c-14.999,15.356 -27.499,2.5 -27.499,2.5l-1.979,16.01l-1.515,-0.253l-0.757,-9.344l1.767,-0.505l0.505,-1.515l-4.545,-0.505l-0.758,20.456c3.788,5.808 4.546,-0.253 4.546,-0.253l2.272,1.263c-8.586,90.66 3.789,129.551 3.789,129.551c-8.839,22.477 5.05,28.79 5.05,28.79l-0.505,15.153l-6.818,-3.788l-0.253,3.788l3.535,2.019l-1.009,1.769c-3.536,-3.031 -4.798,-2.274 -4.798,-2.274c-2.021,35.861 1.514,51.771 1.514,51.771l7.829,1.263l-1.767,42.931l-6.062,0.253c-2.525,4.04 -2.777,19.697 -2.777,19.697c5.556,44.952 -2.021,58.589 -2.021,58.589l11.617,1.769l-0.252,5.555l2.525,1.263c0.505,-4.041 4.546,-5.051 4.546,-5.051c2.777,1.01 0.252,5.303 0.252,5.303l2.525,0.506l1.011,-5.557l1.515,0l-0.252,3.283l2.525,0.253c11.112,-5.051 11.869,0.505 11.869,0.505l1.01,-6.313c1.516,4.041 13.385,3.283 13.385,3.283c10.354,-1.263 11.616,3.283 11.616,3.283l-0.505,-6.313l2.274,0c1.01,4.797 4.293,3.535 4.293,3.535c0.505,-6.567 3.283,-5.304 3.283,-5.304c2.02,2.273 1.515,7.576 1.515,7.576l2.778,1.263c1.01,-4.798 6.061,-4.04 6.061,-4.04l4.293,-3.03l0,3.03l4.545,0l1.263,-3.283c1.263,0.757 2.021,5.808 2.021,5.808l2.272,0l1.768,-1.262l1.262,1.767c0.253,-2.525 3.537,-4.293 3.537,-4.293l3.03,4.546l2.272,-0.758l-0.252,-3.283c2.273,-1.263 7.576,4.293 7.576,4.293l1.262,-1.515l-2.525,-3.031l3.536,-3.788c0.252,3.031 5.051,8.334 5.051,8.334c-1.769,-7.828 2.777,-9.091 2.777,-9.091c2.779,8.839 8.587,9.091 8.587,9.091c0.505,-3.535 1.768,-3.788 1.768,-3.788c7.071,7.576 21.213,1.011 21.213,1.011l9.596,15.657c2.273,-2.778 8.334,-2.273 8.334,-2.273l-1.262,-4.293c17.172,-5.556 22.728,4.293 22.728,4.293l3.284,-4.798l2.019,-0.253l0.253,3.788c5.809,4.041 18.689,-0.757 18.689,-0.757l-3.032,-2.273c-1.262,-3.031 37.376,-2.526 37.376,-2.526c0.252,1.768 -1.516,3.031 -1.516,3.031l-9.849,0.757c9.596,6.314 17.425,-1.514 17.425,-1.514l1.011,-4.294l-3.283,0.757c1.515,-3.788 5.555,-2.525 5.555,-2.525l-1.767,6.062c2.778,1.009 4.798,-0.758 4.798,-0.758l0.253,-4.293l1.767,0l-1.011,3.535c13.385,-4.041 22.982,-2.273 22.982,-2.273c1.263,-6.061 7.323,-4.798 7.323,-4.798c8.84,6.818 19.699,2.273 19.699,2.273c22.475,11.112 34.597,-0.253 34.597,-0.253c5.051,6.819 4.798,-0.505 4.798,-0.505l6.567,-0.253l1.009,-2.02l-15.152,-1.263c12.375,-12.374 44.699,6.314 44.699,6.314l-1.514,-163.392c-17.173,1.768 -10.607,-4.041 -10.607,-4.041c3.283,2.779 5.051,0.758 5.051,0.758c-1.263,-11.617 2.273,-18.183 2.273,-18.183c-4.546,-3.283 1.515,-17.425 1.515,-17.425c-7.829,0.505 -4.041,-15.153 -4.041,-15.153c-6.565,-1.263 -5.556,-5.807 -5.556,-5.807c4.293,-4.294 -1.767,-1.769 -1.767,-1.769c-6.314,-11.111 5.303,-14.647 5.303,-14.647l-4.545,-11.617l11.616,-0.252c5.304,-63.135 -2.273,-99.247 -2.273,-99.247c6.061,-3.284 1.516,-23.739 1.516,-23.739c-12.375,-2.525 -11.112,-7.829 -11.112,-7.829l-10.859,-0.252l-3.789,-2.273c-0.252,8.587 -19.95,-0.758 -19.95,-0.758c-8.587,9.597 -10.859,-6.061 -10.859,-6.061c0.453,0.065 0.275,-0.036 -0.189,-0.137c-1.345,-0.294 -5.095,-0.587 -2.842,3.168c3.031,5.051 -0.758,5.303 -0.758,5.303c-70.963,-7.576 -77.023,-2.02 -77.023,-2.02c7.323,4.798 -0.253,10.859 0,12.627c-13.385,-0.253 -16.668,2.525 -16.668,2.525c-0.252,-11.364 -14.646,-18.94 -23.487,-18.182c-8.837,0.757 -14.14,-3.788 -14.14,-3.788c-8.334,7.828 -27.528,-0.253 -27.528,-0.253Zm-29.294,11.869l0.778,-0.028c-0.026,-0.217 -0.118,-0.29 -0.229,-0.29c-0.231,-0 -0.549,0.318 -0.549,0.318Z" style="fill:url(#_Linear1);fill-rule:nonzero;"/><path d="M46.972,81.318l96.975,103.541c0,-0 7.323,-1.011 9.596,4.798c2.273,5.808 -1.515,0.758 -1.515,0.758l-3.031,-2.273l39.144,42.426c0,-0 -4.798,-13.132 1.515,-1.263c6.314,11.869 16.415,20.456 16.415,20.456l1.515,-2.273l-5.808,-6.566c0,-0 -4.293,-5.05 1.767,-1.767l7.576,9.849c0,-0 -1.767,5.555 4.041,10.353l-1.262,-4.04c0,-0 5.051,2.777 9.343,11.364l-0.252,-3.283l4.293,4.041l-1.768,2.273l40.406,43.184c0,-0 9.344,22.223 59.852,18.941c0,-0 23.991,-30.558 26.011,-76.267l-33.334,-22.477l-19.446,-1.767l0.253,-3.283l7.323,3.03l2.526,0.253l-4.294,-3.535l2.021,-2.274l-160.362,-109.096c0,-0 -10.102,0.505 -9.597,-6.061l-4.04,-0.253l-2.273,-2.272l-2.273,1.767l-1.262,-1.263l1.515,-2.525l-6.314,-3.535l3.031,3.788l-1.516,0.758l-6.565,-6.567l1.515,-1.767l-29.8,-20.961c0,-0 -13.637,-14.648 -41.921,3.788" style="fill:#fff;fill-rule:nonzero;"/><path d="M77.655,242.943l78.792,76.14l-55.811,17.93l-3.409,-2.146c0,-0 -1.136,4.798 -6.187,1.389c0,-0 2.146,3.662 4.419,-2.652c0,-0 -0.884,-2.02 -2.146,-0l-0.884,1.894l-0.253,-3.661l-2.272,1.514l-1.769,-0.252l-0.378,3.282l-33.335,-24.748c0,-0 -4.799,-1.767 -1.011,-13.258c3.788,-11.491 24.244,-55.432 24.244,-55.432" style="fill:#fff;fill-rule:nonzero;"/><path d="M315.42,145.083l8.081,-51.896l-2.272,0.126l0.252,2.02c0,0 -1.01,4.42 -2.02,0.506c-1.011,-3.915 1.262,-5.051 1.262,-5.051l2.652,0.757l0.126,-1.642l-17.552,-12.879c0,0 -6.187,-4.671 -18.435,-0.757c-12.248,3.914 -50.254,13.51 -50.254,13.51l66.291,50.887l0.883,-1.768l-3.157,-1.515c0,0 -2.146,-2.652 1.895,-2.526c4.04,0.126 3.03,7.703 3.03,7.703l3.788,0l2.147,2.778l3.283,-0.253Z" style="fill:#fff;fill-rule:nonzero;"/></g><defs><linearGradient id="_Linear1" x1="0" y1="0" x2="1" y2="0" gradientUnits="userSpaceOnUse" gradientTransform="matrix(-3.30861,405.001,405.001,3.30861,201.369,-0.654914)"><stop offset="0" style="stop-color:#bb3119;stop-opacity:1"/><stop offset="1" style="stop-color:#812112;stop-opacity:1"/></linearGradient></defs></svg>